<svg width="320" height="320" viewBox="0 0 320 320" fill="none" xmlns="http://www.w3.org/2000/svg">
<circle cx="160" cy="158" r="141" fill="white"/>
<path d="M313.941 149.828C314.108 152.707 313.889 168.772 313.643 171.664C311.028 202.419 298.921 231.749 279.048 255.476C265.677 271.437 249.427 284.407 230.927 293.881C222.598 298.145 217.682 300.226 209.317 303.026C199.201 306.413 190.609 308.333 178.416 309.929C171.924 310.779 158.84 311.167 151.389 310.729C130.325 309.492 110.909 304.482 92.216 295.46C79.5868 289.364 67.0911 280.967 56.803 271.661C52.5638 267.826 45.6283 260.744 42.3074 256.859C31.893 244.674 23.0119 230.38 17.7047 217.26C10.7447 200.053 7.69492 187.322 6.32049 169.74C5.96704 165.221 5.96794 152.506 6.32185 148.131C7.47181 133.915 9.77037 122.368 13.8443 110.342C19.3706 94.0285 28.6825 77.0424 39.4603 63.6144C43.5098 58.5693 45.7152 56.1218 50.7934 51.0359C58.7173 43.1011 64.4793 38.3334 73.7044 32.0803C92.1599 19.5701 113.046 11.3755 135.775 7.72789C150.267 5.40172 168.856 5.44652 184.313 7.84329C199.105 10.1373 213.446 14.5783 226.627 20.9463C249.413 31.9549 268.687 47.5819 282.903 66.5737C301.659 91.6308 312.207 119.925 313.941 149.828ZM63.2814 181.846C63.1085 183.005 63.3086 187.461 63.572 188.322C63.8874 189.353 64.6622 190.501 65.4211 191.063C66.9055 192.162 69.8413 191.595 72.5399 189.688C75.0014 187.948 76.5528 186.509 80.4494 182.35C82.4407 180.225 84.7315 177.982 85.5407 177.365C87.2704 176.048 87.2346 175.961 86.4938 179.697C85.9304 182.536 84.9483 188.393 84.4826 191.69C83.6028 197.918 84.9804 204.632 88.9743 213.582C89.4201 214.581 89.8659 215.581 90.3121 216.58C90.2899 218.413 90.2677 220.245 90.2456 222.077C90.1677 228.571 90.0677 228.269 92.8111 229.862C93.8172 230.447 94.6802 231.033 94.7282 231.164C94.7766 231.295 95.3315 233.948 95.9619 237.059C96.5923 240.171 97.363 243.48 97.6753 244.413C99.3407 249.397 102.035 251.892 105.947 252.073C108.951 252.212 110.746 251.263 112.828 248.434C114.432 246.255 116.01 241.681 117.103 236.041C117.308 234.983 117.522 233.955 117.578 233.758C117.638 233.547 118.218 233.245 118.978 233.03C121.523 232.307 122.126 231.639 122.865 228.727C123.003 228.185 123.141 227.644 123.278 227.103C124.4 227.082 125.522 227.062 126.645 227.04C127.767 227.02 128.889 226.999 130.011 226.978C130.215 227.648 130.419 228.318 130.623 228.987C131.376 231.463 132.287 232.43 134.422 233.024C135.453 233.31 135.81 233.518 135.885 233.874C135.94 234.132 136.197 235.464 136.456 236.833C138.045 245.233 140.5 249.715 144.551 251.614C146.413 252.486 148.93 252.477 150.739 251.592C153.199 250.388 155.135 247.538 156 243.848C156.205 242.976 156.778 240.075 157.274 237.399C157.77 234.723 158.259 232.228 158.362 231.855C158.506 231.327 158.962 230.92 160.407 230.028C163.253 228.271 163.074 228.673 162.691 224.9C162.511 223.125 162.363 220.501 162.363 219.07C162.363 216.53 162.387 216.407 163.348 213.978C166.683 205.552 167.913 200.507 168.368 193.398C168.602 189.727 168.385 183.434 167.895 179.712C167.774 178.787 167.752 177.954 167.847 177.861C167.942 177.769 168.81 177.545 169.774 177.364C170.358 177.255 170.942 177.145 171.527 177.036C171.478 178.111 171.429 179.186 171.38 180.262C171.243 183.268 171.267 183.555 171.721 184.494C171.989 185.048 172.587 185.942 173.048 186.481C173.327 186.808 173.607 187.135 173.887 187.462C174.094 189.543 174.301 191.624 174.509 193.705C175.257 201.222 176.161 208.015 176.495 208.641C176.807 209.224 178.874 209.869 182.683 210.572C184.282 210.867 185.651 211.169 185.726 211.244C185.801 211.318 185.744 212.014 185.602 212.792C185.459 213.569 185.274 214.944 185.191 215.848C185.059 217.274 185.095 217.553 185.468 217.965C186.077 218.638 187.26 219.196 189.557 219.897C191.343 220.44 191.924 220.506 195.061 220.518C198.334 220.531 198.688 220.49 200.359 219.903C202.287 219.226 203.294 218.622 203.673 217.913C203.846 217.59 203.814 216.808 203.56 215.093C203.366 213.788 203.207 212.621 203.207 212.501C203.207 212.363 206.334 212.281 211.611 212.281C214.413 212.281 217.213 212.281 220.015 212.281C219.966 212.677 219.917 213.073 219.869 213.469C219.788 214.122 219.657 215.392 219.578 216.29C219.437 217.89 219.447 217.934 220.112 218.556C221.588 219.934 225.362 220.778 229.189 220.586C232.056 220.441 234.017 219.972 236.386 218.863C238.37 217.934 238.439 217.732 237.946 214.205C237.727 212.637 237.592 211.311 237.646 211.257C237.701 211.202 239.265 210.902 241.124 210.589C246.877 209.621 248.857 208.754 249.321 207.002C249.426 206.608 249.436 204.808 249.344 203.004C248.829 192.843 248.821 191.775 249.254 191.609C249.477 191.523 249.696 191.489 249.74 191.533C249.784 191.577 249.992 194.487 250.203 198C250.723 206.67 250.462 208.417 248.51 209.34C248.114 209.527 247.835 209.781 247.888 209.905C248.977 212.462 249.132 212.977 249.137 214.03C249.14 214.681 248.926 215.871 248.662 216.677C248.128 218.303 248.209 219.144 248.94 219.535C249.915 220.057 250.914 218.354 251.405 215.334C251.642 213.88 251.934 213.398 252.334 213.798C252.617 214.081 252.408 215.328 251.594 218.208C251.187 219.647 251.152 220.01 251.394 220.301C252.509 221.644 254.133 218.852 254.493 214.97C254.573 214.113 254.72 213.413 254.821 213.413C255.236 213.413 255.296 215.132 254.943 216.931C254.739 217.965 254.573 218.92 254.573 219.054C254.573 219.494 255.012 219.307 255.932 218.476C257.278 217.26 257.59 215.958 257.464 212.081C257.368 209.137 257.323 208.893 256.441 206.59C255.933 205.265 255.347 203.918 255.137 203.599C254.854 203.167 254.703 202.158 254.549 199.673C254.436 197.834 254.191 194.446 254.005 192.145C253.529 186.237 253.488 186.622 254.709 185.511C256.673 183.723 256.824 182.59 255.574 178.998C254.618 176.253 253.758 174.492 252.768 173.251C251.928 172.198 251.945 171.67 252.918 168.539C253.758 165.838 253.883 162.241 253.241 159.279C252.601 156.331 252.628 155.789 253.588 152.157C254.454 148.881 254.577 147.258 254.348 142.134C254.273 140.461 254.359 139.886 255.008 137.722C255.689 135.451 255.769 134.865 255.918 131.046C256.066 127.276 256.142 126.706 256.686 125.306C257.368 123.545 257.491 121.455 256.969 120.456C256.493 119.544 255.528 118.729 253.969 117.919C252.182 116.99 251.701 116.475 249.368 112.989C247.219 109.778 246.151 108.853 244.105 108.431C243.035 108.21 242.614 108.264 239.771 108.981C236.133 109.899 235.008 109.948 231.909 109.316C229.365 108.798 229.048 108.826 224.397 110.003C221.257 110.796 220.318 110.827 217.587 110.223C214.623 109.568 212.908 109.639 209.219 110.568C205.564 111.488 204.348 111.537 201.131 110.89C198.363 110.335 197.276 110.398 193.109 111.361C191.506 111.73 189.878 112.034 189.49 112.036C189.102 112.038 187.523 111.774 185.983 111.451C182.45 110.71 180.583 110.792 177.072 111.84C174.709 112.545 174.418 112.58 171.352 112.536C168.521 112.493 168.014 112.543 167.244 112.936C165.696 113.726 164.793 115.395 165.049 116.995C165.122 117.454 165.541 118.914 165.979 120.237C166.95 123.171 166.983 124.335 166.181 127.344C165.263 130.784 165.328 132.509 166.505 136.071C167.559 139.262 167.632 140.103 167.115 143.039C166.929 144.097 166.776 145.293 166.776 145.698C166.776 146.103 166.713 146.433 166.638 146.433C166.324 146.433 155.191 139.568 151.758 137.257C151.316 136.959 150.874 136.662 150.431 136.364C149.685 134.101 148.939 131.838 148.193 129.575C144.245 117.605 142.55 111.975 140.184 102.987C135.897 86.701 132.615 76.5899 128.889 68.1966C124.236 57.7153 120.609 53.4404 116.363 53.434C112.374 53.4277 110.393 56.6965 109.096 65.4247C108.259 71.0546 107.956 75.3181 107.263 91.2208C106.784 102.212 106.116 110.085 104.993 117.96C103.867 125.854 101.92 134.388 100.745 136.582C99.567 138.782 97.1417 140.896 91.6517 144.507C85.9435 148.261 84.2876 149.483 80.6087 152.652C75.0802 157.413 69.6521 164.378 66.8499 170.306C65.1745 173.851 63.8209 178.229 63.2814 181.846ZM178.866 245.205C178.414 246.441 178.58 248.491 179.204 249.367C179.858 250.286 181.751 251.166 183.892 251.548C187.256 252.148 189.212 251.927 192.307 250.598C192.951 250.321 193.595 250.044 194.239 249.768C194.347 249.931 194.455 250.095 194.564 250.259C194.839 250.673 195.104 250.749 196.277 250.748C199.681 250.745 200.128 250.163 200.004 245.895C199.932 243.395 199.874 243.08 199.297 242.098C198.951 241.509 198.47 240.922 198.229 240.793C197.868 240.6 197.83 240.456 198.01 239.982C198.137 239.646 198.229 235.729 198.229 230.595C198.229 227.659 198.229 224.722 198.229 221.785C197.173 221.785 196.117 221.785 195.061 221.785C194.005 221.785 192.949 221.785 191.893 221.785C191.893 224.684 191.893 227.583 191.893 230.482C191.893 235.743 191.983 239.415 192.12 239.776C192.331 240.331 192.226 240.487 190.592 242.05C189.628 242.973 188.624 243.787 188.362 243.861C188.05 243.948 187.509 243.754 186.786 243.295C185.595 242.54 184.463 242.154 183.434 242.152C181.567 242.148 179.472 243.548 178.866 245.205ZM223.625 242.97C223.313 244.15 223.29 248.162 223.59 249.24C223.893 250.334 224.784 250.749 226.834 250.749C228.046 250.749 228.354 250.671 228.618 250.293C228.934 249.841 228.951 249.844 230.406 250.524C233.489 251.967 237.367 252.237 240.552 251.228C242.165 250.718 244.085 249.483 244.54 248.665C245.355 247.196 244.444 244.225 242.856 243.175C241.03 241.966 238.367 242.027 236.062 243.33C235.004 243.928 234.816 243.97 234.478 243.686C231.19 240.92 230.592 240.191 231.266 239.775C231.41 239.685 231.492 236.416 231.492 230.71C231.492 227.735 231.492 224.76 231.492 221.785C230.436 221.785 229.38 221.785 228.324 221.785C227.268 221.785 226.212 221.785 225.156 221.785C225.161 224.595 225.165 227.405 225.169 230.214C225.177 234.85 225.254 239.049 225.342 239.545C225.489 240.376 225.437 240.512 224.68 241.269C224.227 241.722 223.753 242.486 223.625 242.97Z" fill="#F74333"/>
</svg>
