<svg width="190" height="56" fill="none" xmlns="http://www.w3.org/2000/svg"><path d="M168.85 39.23a5.28 5.28 0 004.82 2.57h8.19l-9.67-11.74c-4.46.18-6.82 3-6.33 4.24l2.99 4.93z" fill="url(#paint0_linear)"/><path d="M165.86 34.3a3.341 3.341 0 01-.27-1.33c0-2.68 2.38-4.21 5.08-4.77l1.52 1.86c-4.46.18-6.82 3.04-6.33 4.24z" fill="url(#paint1_linear)"/><path d="M169.59 25.59c-4.08 0-7.12.67-7.12 2.27.043.716.278 1.406.68 2l2.71 4.45a3.36 3.36 0 01-.27-1.33c0-2.68 2.38-4.21 5.08-4.77A11.827 11.827 0 01173 28a5.535 5.535 0 011.76.2c-.24-1.05-.99-2.61-5.17-2.61z" fill="url(#paint2_linear)"/><path d="M158.86 22.81c1.12 1.84 1.54 2.3 4.21 2.3h5.09l-7-8.88c-1.56-1.91-2.45-2.26-3.87-2.29h-3.81l5.38 8.87z" fill="url(#paint3_linear)"/><path d="M80.94 36.23v-6.69c0-1.28-.58-2.06-1.67-2.06-1.45 0-2.42 1.54-2.42 3.62v5.13H74.5v-7.61c0-.84-.07-2.06-.11-2.75h1.89c.21 0 .27.09.28.28.01.19 0 1.29 0 1.29a3.31 3.31 0 013.18-1.79 3.23 3.23 0 013.49 3.24v7.34h-2.29zM62.55 34c.06 0 .15 0 .17.23 0 .49.06 1.3.07 1.55a6.272 6.272 0 01-2.74.7C56.91 36.43 55 34.61 55 31c0-3.34 1.72-5.39 5.07-5.39a6.29 6.29 0 012.74.7c0 .37 0 1.2-.07 1.55 0 .15-.09.22-.17.22a.3.3 0 01-.18-.05 4.87 4.87 0 00-2.11-.55c-2 0-2.82 1.31-2.82 3.52 0 2 .65 3.52 2.82 3.52a4.89 4.89 0 002-.52h.27zm8.13 2.28a.321.321 0 01-.37-.34c0-.34-.07-1-.07-1a3.62 3.62 0 01-3.15 1.53 3.18 3.18 0 01-3.24-3.34c0-2.41 2.34-3.63 5.83-3.63h.46v-.38c0-1.09-.77-1.67-2.21-1.67a6.538 6.538 0 00-2.8.67.3.3 0 01-.17.06.171.171 0 01-.172-.116.17.17 0 01-.008-.074c0-.39-.06-1.14-.07-1.62 1.08-.42 2.223-.65 3.38-.68 3.08 0 4.41 1.43 4.41 3.71v4c-.005.946.055 1.892.18 2.83l-2 .05zM70.11 31h-.4c-2.95 0-3.53 1-3.53 2.07a1.58 1.58 0 001.66 1.66c1.47 0 2.27-1.41 2.27-2.9V31zm-29.5 3c.12 0 .16.12.17.24 0 .44.08 1.44.08 1.69a9.921 9.921 0 01-3.22.55c-3.3 0-5.28-1.71-5.28-5.39 0-3.15 1.69-5.39 4.73-5.39a4.13 4.13 0 014.41 4.48c0 .29 0 .78-.09 1.43h-6.64a2.91 2.91 0 003.23 3 5.76 5.76 0 002.41-.61.35.35 0 01.2 0zm-5.81-4h4.35c.09-1.67-.78-2.6-2.11-2.6-1.33 0-2.18.98-2.24 2.6zm-6.51 6.25V29.6c0-1.2-.5-2.12-1.72-2.12-1.38 0-2.17 1.5-2.17 3.61v5.14h-2.35v-6.65c0-1.09-.45-2.1-1.71-2.1s-2.17 1.5-2.17 3.68v5.07h-2.36v-7.55c0-1-.09-2.35-.11-2.81h1.88c.21 0 .28.07.29.29.01.22 0 1.28 0 1.28A3.26 3.26 0 0121 25.65a3.11 3.11 0 013 1.89 3.43 3.43 0 013.11-1.89c2.11 0 3.54 1.13 3.54 3.41v7.17l-2.36.02zm17.37-5v5h-2.35v-7.7c0-.74-.08-2.15-.12-2.66h1.9c.21 0 .27.08.27.29v1.28a2.85 2.85 0 012.81-1.79c.418.002.832.084 1.22.24 0 .45 0 1.43-.07 1.69s-.09.22-.18.22a.321.321 0 01-.16 0 2.428 2.428 0 00-1-.17c-1.14-.05-2.32.86-2.32 3.53v.07zm5 5V25.87h2.35v10.36l-2.35.02zm0-11.88v-2.29h2.4v2.27l-2.4.02zM12.25 36.23l-1.08-3.06H5.4l-1.07 3.06H1.87L7 22.62h2.74l5.08 13.61h-2.57zM8.31 25.1h-.05l-2.2 6.23h4.45l-2.2-6.23zM147 36.43c3.06 0 4.52-1.25 4.52-3.12s-1.3-2.6-2.68-3.05l-1.14-.38c-.95-.32-1.44-.73-1.44-1.34 0-.61.59-1.1 1.82-1.1a5.3 5.3 0 012.33.62c.062.033.13.054.2.06.08 0 .17 0 .18-.23 0-.34.07-1 .07-1.58a6.659 6.659 0 00-3-.66c-2.53 0-4.09 1.32-4.09 3.05a3.005 3.005 0 002.42 2.88l1.15.38c1.32.44 1.7.84 1.7 1.46 0 .8-.86 1.2-2.34 1.2a5.172 5.172 0 01-2.38-.6.439.439 0 00-.21-.07c-.17 0-.17.24-.18.27-.01.03-.06 1.19-.06 1.55.986.435 2.052.66 3.13.66zM141.46 34c.13 0 .16.12.18.24 0 .44.07 1.44.07 1.69a9.921 9.921 0 01-3.22.55c-3.3 0-5.28-1.71-5.28-5.38 0-3.16 1.69-5.4 4.73-5.4a4.131 4.131 0 014.41 4.48c0 .29 0 .78-.08 1.44h-6.65a2.902 2.902 0 003.21 3 5.719 5.719 0 002.43-.59.35.35 0 01.2-.03zm-5.81-4H140c.09-1.67-.79-2.6-2.11-2.6-1.32 0-2.17.98-2.24 2.6zm-6.51 6.25v-6.71c0-1.28-.58-2.06-1.67-2.06-1.45 0-2.41 1.54-2.41 3.62v5.13h-2.35v-7.61c0-.84-.08-2.06-.12-2.75h1.89c.21 0 .27.09.28.28.01.19 0 1.29 0 1.29h.05a3.311 3.311 0 013.19-1.79 3.235 3.235 0 012.458.852 3.237 3.237 0 011.032 2.388v7.34l-2.35.02zm-21.42-5v5h-2.35v-7.7c0-.74-.09-2.15-.12-2.66h1.9c.21 0 .26.08.27.29.01.21 0 1.28 0 1.28h.06a2.828 2.828 0 012.8-1.79c.418 0 .833.082 1.22.24 0 .45-.05 1.43-.07 1.69-.02.26-.09.22-.17.22a.321.321 0 01-.16 0 2.647 2.647 0 00-1-.17c-1.2-.05-2.38.86-2.38 3.53v.07zm7.5 5V22.09h-2.35v14.14l2.35.02zm-14.77 0V25.87h2.35v10.36l-2.35.02zm0-11.88v-2.29h2.41v2.27l-2.41.02zm17.37 11.88V25.87h2.35v10.36l-2.35.02zm0-11.88v-2.29h2.41v2.27l-2.41.02zM96.88 36.23l-1.08-3.06H90l-1 3.06h-2.5l5.16-13.61h2.74l5.09 13.61h-2.61zM92.94 25.1l-2.2 6.23h4.45l-2.25-6.23zM184.05 41.15a.63.63 0 11-1.26.021.63.63 0 011.26-.021zm-1.14 0a.513.513 0 00.51.51.505.505 0 00.465-.316.516.516 0 00-.111-.547.5.5 0 00-.354-.147.493.493 0 00-.36.143.496.496 0 00-.15.357zm.49.05h-.06v.25h-.11v-.62h.19c.14 0 .22.07.22.18a.169.169 0 01-.13.17l.16.27h-.13l-.14-.25zm0-.08c.09 0 .14 0 .14-.11s-.05-.1-.14-.1V41.12z" fill="#45586A"/><defs><linearGradient id="paint0_linear" x1="173.83" y1="29.75" x2="173.83" y2="47.84" gradientUnits="userSpaceOnUse"><stop stop-color="#ED1C24"/><stop offset=".13" stop-color="#E81B23"/><stop offset=".27" stop-color="#DB1A21"/><stop offset=".42" stop-color="#C4171D"/><stop offset=".58" stop-color="#A41317"/><stop offset=".74" stop-color="#7B0E10"/><stop offset=".75" stop-color="#780E0F"/></linearGradient><linearGradient id="paint1_linear" x1="165.59" y1="31.25" x2="172.19" y2="31.25" gradientUnits="userSpaceOnUse"><stop stop-color="#69231D"/><stop offset=".26" stop-color="#8D2922"/><stop offset=".58" stop-color="#B22F26"/><stop offset=".84" stop-color="#C93329"/><stop offset="1" stop-color="#D1342A"/></linearGradient><linearGradient id="paint2_linear" x1="164.87" y1="30.29" x2="172.22" y2="25.87" gradientUnits="userSpaceOnUse"><stop offset=".1" stop-color="#EFF2F4"/><stop offset=".33" stop-color="#DDE2E6"/><stop offset=".8" stop-color="#ADBAC2"/><stop offset="1" stop-color="#96A7B0"/></linearGradient><linearGradient id="paint3_linear" x1="160.81" y1="26.57" x2="160.81" y2="14.07" gradientUnits="userSpaceOnUse"><stop stop-color="#1C2F72"/><stop offset=".14" stop-color="#17488A"/><stop offset=".41" stop-color="#0D74B3"/><stop offset=".65" stop-color="#0694D2"/><stop offset=".86" stop-color="#02A8E4"/><stop offset="1" stop-color="#00AFEB"/></linearGradient><clipPath id="clip0"/></defs></svg>