<?xml version="1.0" encoding="utf-8"?>
<!-- Generator: Adobe Illustrator 25.2.0, SVG Export Plug-In . SVG Version: 6.00 Build 0)  -->
<svg version="1.1" id="Layer_1" xmlns="http://www.w3.org/2000/svg" xmlns:xlink="http://www.w3.org/1999/xlink" x="0px" y="0px"
	 viewBox="0 0 398 90" style="enable-background:new 0 0 398 90;" xml:space="preserve">
<path d="M70.3,90H47.5L0.9,0h66.2c25.7,0,46.6,20.9,46.6,46.6C113.6,70.6,94.2,90,70.3,90z"/>
<path d="M278,60h-8l-0.1-30h7c8.6,0,15.5,7,15.5,15.5C292.4,53.5,286,60,278,60z M271.7,58.3h6.3c7.1,0,12.8-5.8,12.8-12.8
	c0-7.7-6.2-13.9-13.8-13.9h-5.4L271.7,58.3z"/>
<path d="M157.2,29.9h2.3l19,27.7h0.1V29.9h1.9v30.2h-2.2l-19.2-27.9H159v27.9h-1.9L157.2,29.9z"/>
<path d="M198.5,29.9h20.3v1.6h-18.4v12.1h17.3v1.6h-17.3v13.3H219v1.6h-20.5L198.5,29.9z"/>
<path d="M231.6,31.5v-1.6h23.1v1.6h-10.6v28.6h-1.9V31.5H231.6z"/>
<path d="M317.4,29.9h2l11.9,30.2h-2l-3.8-9.7h-14.4l-3.9,9.7h-2L317.4,29.9z M325,48.8l-6.5-17.1h-0.1l-6.7,17.1L325,48.8z"/>
<path d="M339.7,31.5v-1.6h23.1v1.6h-10.6v28.6h-1.9V31.5H339.7z"/>
<path d="M383.2,29.9h2l11.9,30.2h-2l-3.8-9.7h-14.4l-3.9,9.7h-2L383.2,29.9z M390.7,48.8l-6.5-17.1h-0.1l-6.7,17.1L390.7,48.8z"/>
</svg>
