<svg fill="none" height="35" viewBox="0 0 68 35" width="68" xmlns="http://www.w3.org/2000/svg" xmlns:xlink="http://www.w3.org/1999/xlink"><linearGradient id="a" gradientUnits="userSpaceOnUse" x1="33.9768" x2="33.9768" y1="1.02057" y2="33.9829"><stop offset="0" stop-color="#00b8f1"/><stop offset=".22" stop-color="#06a5e5"/><stop offset=".794" stop-color="#1870c5"/><stop offset="1" stop-color="#1d61bc"/></linearGradient><path d="m.980469 1.00275v32.98635h33.372931l32.6661-32.98264h-66.039031z" fill="url(#a)"/><path d="m43.2523 30.6173v2.4605h.3677v-1.068h.4134l.6664 1.068h.4142l-.7128-1.068c.356-.0445.6436-.254.6436-.6966 0-.4842-.2942-.6959-.8731-.6959zm.3677.3253h.5054c.2486 0 .5288.0401.5288.3476 0 .3839-.2839.4181-.598.4181h-.4362zm.4598-1.2306c-1.1666 0-2.1611.9075-2.1611 2.1352 0 1.2366.9945 2.1582 2.1611 2.1582.2798.0008.557-.0548.8154-.1632.2584-.1085.4928-.2679.6896-.4687.1968-.2009.3521-.4393.4567-.7013.1047-.262.1567-.5425.153-.825 0-1.2277-.9643-2.1352-2.1147-2.1352zm0 .3483c.9518 0 1.7006.7761 1.7006 1.7869 0 1.0279-.7488 1.7869-1.7006 1.7869-.968 0-1.747-.759-1.747-1.7869 0-1.0101.779-1.7869 1.747-1.7869z" fill="#1870c5"/><path clip-rule="evenodd" d="m40.5513 16.7863h-1.4314v-5.2857h1.4314c1.9109 0 3.4321.6357 3.4321 2.609 0 2.0379-1.5212 2.6767-3.4321 2.6767zm-15.4063 3.7787c-.7106.0024-1.4158-.1239-2.0823-.3728l2.0617-6.5653h.0442l2.0191 6.5831c-.655.2355-1.3452.3556-2.0405.355zm15.0267-13.35864h-6.5001v15.60604l-5.6785-15.60604h-5.6285l-4.8517 13.04754c-.5127-3.2887-3.8867-4.4272-6.5391-5.2761-1.74841-.5681-3.60937-1.4029-3.59245-2.3276.01471-.756.99962-1.4571 2.94225-1.3524 1.3093.0669 2.4641.1738 4.7568 1.293l2.2582-3.97185c-2.0919-1.07912-4.9908-1.75645-7.36221-1.76165h-.01471c-2.76643 0-5.07166.91053-6.50158 2.4011-.99374 1.0427-1.53143 2.3617-1.55571 3.83-.03677 2.0112.69658 3.4387 2.23168 4.5802 1.29899.961 2.9562 1.5797 4.41996 2.0431 1.80577.5622 3.27987 1.0531 3.26297 2.0996-.0148.381-.1552.7382-.4281 1.0204-.4495.4716-1.1401.6461-2.09563.6677-1.84184.0371-3.20777-.2525-5.38354-1.5507l-2.00734 4.0275c2.2434 1.2869 4.77765 1.9676 7.35778 1.9763h.33909c2.28024-.0445 4.12204-.7018 5.59394-1.896l.2383-.2102-.6502 1.7646h5.9028l.9915-3.0443c1.0372.3543 2.2185.5533 3.4689.5533 1.2203 0 2.3714-.1856 3.3902-.5243l.9533 3.0153h9.6313v-6.3054h2.1015c5.0754 0 8.0809-2.6083 8.0809-6.9857 0-4.87201-2.9187-7.10675-9.1327-7.10675" fill="#fff" fill-rule="evenodd"/></svg>