<svg width="124" height="38" fill="none" xmlns="http://www.w3.org/2000/svg"><path d="M18.595 0C8.325 0 0 8.507 0 19c0 10.494 8.326 19 18.595 19 10.271 0 18.596-8.506 18.596-19 0-10.493-8.325-19-18.596-19zm8.528 27.404a1.144 1.144 0 01-1.594.392c-4.366-2.725-9.863-3.342-16.335-1.83a1.16 1.16 0 01-1.388-.893 1.184 1.184 0 01.872-1.418c7.083-1.653 13.16-.941 18.06 2.12a1.2 1.2 0 01.385 1.629zm2.276-5.174a1.432 1.432 0 01-1.994.488c-4.998-3.139-12.618-4.048-18.53-2.214a1.447 1.447 0 01-1.81-.987c-.23-.784.202-1.61.968-1.848 6.753-2.094 15.149-1.08 20.889 2.525a1.5 1.5 0 01.477 2.036zm.195-5.387c-5.993-3.637-15.88-3.972-21.603-2.197-.919.284-1.89-.246-2.169-1.185-.278-.939.24-1.931 1.16-2.216C13.55 9.207 24.469 9.6 31.37 13.786c.828.501 1.099 1.592.608 2.435a1.717 1.717 0 01-2.383.622zm20.998.697c-3.211-.782-3.782-1.331-3.782-2.485 0-1.09 1.004-1.824 2.498-1.824 1.448 0 2.883.557 4.388 1.704a.203.203 0 00.158.04.206.206 0 00.14-.088l1.567-2.258a.219.219 0 00-.04-.292c-1.792-1.469-3.808-2.183-6.166-2.183-3.466 0-5.889 2.126-5.889 5.167 0 3.262 2.09 4.417 5.7 5.308 3.071.723 3.59 1.329 3.59 2.412 0 1.2-1.047 1.946-2.735 1.946-1.874 0-3.404-.646-5.114-2.157a.206.206 0 00-.298.023l-1.758 2.136a.22.22 0 00.02.3c1.99 1.815 4.437 2.773 7.079 2.773 3.735 0 6.149-2.085 6.149-5.314.006-2.724-1.59-4.233-5.5-5.205l-.007-.003zm13.958-3.236c-1.619 0-2.947.652-4.044 1.987v-1.503a.212.212 0 00-.208-.215h-2.876a.212.212 0 00-.209.215v16.7c0 .118.094.215.21.215h2.875a.213.213 0 00.208-.215v-5.271c1.097 1.255 2.425 1.87 4.044 1.87 3.009 0 6.055-2.367 6.055-6.89.005-4.526-3.042-6.893-6.053-6.893h-.002zm2.711 6.892c0 2.303-1.388 3.912-3.377 3.912-1.965 0-3.449-1.682-3.449-3.912s1.484-3.91 3.449-3.91c1.956-.001 3.377 1.643 3.377 3.91zm11.15-6.892c-3.875 0-6.91 3.049-6.91 6.941 0 3.851 3.015 6.866 6.863 6.866 3.888 0 6.932-3.038 6.932-6.915 0-3.864-3.024-6.891-6.886-6.891zm0 10.826c-2.061 0-3.616-1.692-3.616-3.935 0-2.253 1.501-3.887 3.569-3.887 2.074 0 3.637 1.691 3.637 3.936 0 2.253-1.51 3.886-3.59 3.886zM93.57 14.573h-3.164v-3.305a.212.212 0 00-.209-.215h-2.876a.214.214 0 00-.21.215v3.305h-1.382a.212.212 0 00-.208.215v2.525c0 .118.093.215.208.215h1.382v6.534c0 2.638 1.285 3.977 3.823 3.977 1.03 0 1.885-.218 2.692-.685a.21.21 0 00.106-.186v-2.405a.215.215 0 00-.1-.182.2.2 0 00-.204-.009 3.566 3.566 0 01-1.688.415c-.921 0-1.334-.429-1.334-1.386v-6.072h3.164a.212.212 0 00.209-.215V14.79a.206.206 0 00-.207-.216h-.002zm11.023.013v-.406c0-1.194.448-1.726 1.452-1.726.599 0 1.081.121 1.621.305.066.021.135.01.189-.03a.216.216 0 00.086-.175V10.08a.212.212 0 00-.149-.206 7.714 7.714 0 00-2.389-.351c-2.653 0-4.059 1.528-4.059 4.417v.621h-1.381a.214.214 0 00-.211.215v2.538c0 .118.095.215.21.215h1.382v10.075c0 .12.095.216.211.216h2.873a.212.212 0 00.211-.216V17.53h2.685l4.112 10.074c-.466 1.058-.926 1.269-1.552 1.269-.506 0-1.041-.155-1.585-.461a.226.226 0 00-.167-.016.211.211 0 00-.124.116l-.975 2.185a.216.216 0 00.091.279c1.017.563 1.934.803 3.069.803 2.123 0 3.297-1.012 4.33-3.73l4.987-13.168a.212.212 0 00-.022-.2.204.204 0 00-.171-.093h-2.993a.211.211 0 00-.2.144l-3.067 8.947-3.357-8.953a.21.21 0 00-.196-.138h-4.911v-.001zm-6.391-.013h-2.876a.214.214 0 00-.21.215v12.815c0 .12.095.216.21.216h2.876c.115 0 .21-.095.21-.216V14.79a.212.212 0 00-.21-.215zm-1.421-5.835c-1.14 0-2.063.942-2.063 2.106s.924 2.107 2.063 2.107c1.139 0 2.06-.943 2.06-2.107 0-1.164-.923-2.106-2.06-2.106zm25.185 9.956c-1.137 0-2.023-.934-2.023-2.068s.897-2.078 2.034-2.078c1.137 0 2.023.934 2.023 2.066 0 1.134-.897 2.08-2.034 2.08zm.011-3.94c-1.037 0-1.821.841-1.821 1.872 0 1.03.78 1.86 1.81 1.86 1.037 0 1.821-.84 1.821-1.872 0-1.03-.78-1.86-1.81-1.86zm.449 2.073l.573.819h-.485l-.515-.751h-.442v.75h-.404v-2.17h.946c.495 0 .82.259.82.693.002.356-.2.573-.491.659h-.002zm-.342-.98h-.527v.687h.527c.262 0 .419-.131.419-.343 0-.223-.157-.343-.419-.343z" fill="#1ED760"/></svg>