<svg viewBox="0 0 1132.82 278.22" xmlns="http://www.w3.org/2000/svg"><g fill="#1a1a18"><path d="m297.74 98.58h114.74v21.42h-45.06v120.31h-24.82v-120.31h-44.86zm109.77 39.1h21.24v19.85h.4a22.76 22.76 0 0 1 3.85-8.13 37.11 37.11 0 0 1 7-7.25 35 35 0 0 1 9-5.26 27.05 27.05 0 0 1 10.12-2 50.32 50.32 0 0 1 5.46.19c1 .14 2 .27 3.08.4v21.84c-1.59-.27-3.21-.5-4.87-.7a40.37 40.37 0 0 0 -4.86-.3 26 26 0 0 0 -10.82 2.29 24.88 24.88 0 0 0 -8.83 6.74 33.07 33.07 0 0 0 -6 11 47.6 47.6 0 0 0 -2.18 15.09v48.83h-22.59zm164 102.63h-22.24v-14.31h-.4a31.1 31.1 0 0 1 -12.41 12.4 33.67 33.67 0 0 1 -16.77 4.67q-20.25 0-29.28-10t-9-30.27v-65.12h22.59v62.93q0 13.5 5.16 19t14.49 5.56a28.55 28.55 0 0 0 11.92-2.17 21 21 0 0 0 7.74-5.86 22.33 22.33 0 0 0 4.27-8.83 45.77 45.77 0 0 0 1.29-11.12v-59.51h22.63zm38.49-32.95q1 9.93 7.54 13.89a29.65 29.65 0 0 0 15.68 4 60.75 60.75 0 0 0 7.25-.49 31.32 31.32 0 0 0 7.64-1.89 14.26 14.26 0 0 0 5.85-4.07 9.79 9.79 0 0 0 2.09-7.05 10 10 0 0 0 -3.18-7.14 22.07 22.07 0 0 0 -7.64-4.47 75.49 75.49 0 0 0 -10.62-2.88q-6-1.18-12.11-2.58a113.69 113.69 0 0 1 -12.21-3.37 39.35 39.35 0 0 1 -10.52-5.36 24.72 24.72 0 0 1 -7.44-8.64 27.6 27.6 0 0 1 -2.78-13 23.36 23.36 0 0 1 4.07-14 31.09 31.09 0 0 1 10.38-9.15 44.94 44.94 0 0 1 13.9-4.87 82.06 82.06 0 0 1 14.59-1.38 67 67 0 0 1 15.18 1.68 41.44 41.44 0 0 1 13.1 5.46 32.14 32.14 0 0 1 9.73 9.83 34 34 0 0 1 4.86 14.59h-23.67q-1.59-8.15-7.44-10.92a31 31 0 0 0 -13.4-2.78 46.86 46.86 0 0 0 -5.66.4 25.74 25.74 0 0 0 -6.15 1.49 12.9 12.9 0 0 0 -4.87 3.17 7.6 7.6 0 0 0 -2 5.46 8.63 8.63 0 0 0 2.88 6.75 22.87 22.87 0 0 0 7.54 4.27 74.21 74.21 0 0 0 10.62 2.87q6 1.2 12.31 2.59a125.42 125.42 0 0 1 12.11 3.37 39 39 0 0 1 10.62 5.36 26.18 26.18 0 0 1 7.54 8.54 25.73 25.73 0 0 1 2.88 12.7q0 9.13-4.17 15.48a32.88 32.88 0 0 1 -10.82 10.32 49 49 0 0 1 -14.79 5.76 75 75 0 0 1 -16.08 1.79 69.76 69.76 0 0 1 -18-2.19 41.67 41.67 0 0 1 -14.29-6.65 32 32 0 0 1 -9.53-11.11 35.25 35.25 0 0 1 -3.67-15.78zm74.63-69.68h17.07v-30.76h22.63v30.76h20.45v16.88h-20.44v54.78a54.38 54.38 0 0 0 .3 6.16 10.57 10.57 0 0 0 1.39 4.36 6.6 6.6 0 0 0 3.27 2.68 16 16 0 0 0 6 .9c1.59 0 3.18 0 4.76-.1a23.79 23.79 0 0 0 4.77-.7v17.47c-2.52.26-5 .53-7.35.79a65.14 65.14 0 0 1 -7.34.4 49.82 49.82 0 0 1 -14.39-1.69 19.2 19.2 0 0 1 -8.54-5 17.14 17.14 0 0 1 -4.17-8.24 61.4 61.4 0 0 1 -1.29-11.31v-60.5h-17.11zm76 0h21.47v13.9h.4a28 28 0 0 1 13.3-12.8 44.16 44.16 0 0 1 18.46-3.87 49.09 49.09 0 0 1 21.14 4.26 41.78 41.78 0 0 1 15 11.71 51.09 51.09 0 0 1 8.93 17.37 73.77 73.77 0 0 1 3 21.24 75.39 75.39 0 0 1 -2.68 20 52.13 52.13 0 0 1 -8.14 17.17 40.74 40.74 0 0 1 -13.8 11.91q-8.32 4.47-19.65 4.47a55.37 55.37 0 0 1 -9.92-.9 42.65 42.65 0 0 1 -9.53-2.87 37.4 37.4 0 0 1 -8.44-5.07 28 28 0 0 1 -6.45-7.24h-.4v51.21h-22.65zm79 51.42a51 51 0 0 0 -1.79-13.5 36.77 36.77 0 0 0 -5.32-11.6 27.69 27.69 0 0 0 -8.93-8.13 24.3 24.3 0 0 0 -12.31-3.08q-14.29 0-21.53 9.92t-7.25 26.39a52.49 52.49 0 0 0 1.89 14.39 32.37 32.37 0 0 0 5.61 11.41 28.21 28.21 0 0 0 9 7.54 25.62 25.62 0 0 0 12.2 2.78 25.35 25.35 0 0 0 13.1-3.17 27.78 27.78 0 0 0 8.84-8.24 33.5 33.5 0 0 0 5-11.51 58.65 58.65 0 0 0 1.53-13.2zm39.9-90.52h22.67v21.42h-22.63zm0 39.1h22.67v102.63h-22.63zm42.85-39.1h22.63v141.73h-22.59zm91.9 144.51a55.94 55.94 0 0 1 -21.89-4.09 46.64 46.64 0 0 1 -16.28-11.22 47.85 47.85 0 0 1 -10.11-17.05 69.8 69.8 0 0 1 0-43.47 47.85 47.85 0 0 1 10.12-17.07 46.9 46.9 0 0 1 16.27-11.19 61.28 61.28 0 0 1 43.87 0 47 47 0 0 1 16.27 11.22 47.87 47.87 0 0 1 10.13 17.07 69.8 69.8 0 0 1 0 43.47 47.87 47.87 0 0 1 -10.13 17.07 46.69 46.69 0 0 1 -16.27 11.17 56 56 0 0 1 -21.94 4.09zm0-17.87a26 26 0 0 0 13.1-3.17 27.71 27.71 0 0 0 9.14-8.34 36.53 36.53 0 0 0 5.26-11.61 52.3 52.3 0 0 0 0-26.3 35.33 35.33 0 0 0 -5.26-11.62 28.05 28.05 0 0 0 -9.14-8.23 28.57 28.57 0 0 0 -26.2 0 28 28 0 0 0 -9.13 8.23 35.12 35.12 0 0 0 -5.26 11.62 52 52 0 0 0 0 26.3 36.31 36.31 0 0 0 5.26 11.61 27.68 27.68 0 0 0 9.13 8.34 26 26 0 0 0 13.14 3.17zm58.36-87.54h17.07v-30.76h22.63v30.76h20.44v16.88h-20.44v54.78a54.38 54.38 0 0 0 .3 6.16 10.57 10.57 0 0 0 1.39 4.36 6.55 6.55 0 0 0 3.27 2.68 16 16 0 0 0 6 .9c1.59 0 3.17 0 4.76-.1a23.59 23.59 0 0 0 4.76-.7v17.47c-2.51.26-5 .53-7.34.79a65.14 65.14 0 0 1 -7.34.4 50 50 0 0 1 -14.4-1.69 19.16 19.16 0 0 1 -8.53-5 17.14 17.14 0 0 1 -4.17-8.24 61.4 61.4 0 0 1 -1.29-11.31v-60.5h-17.07z"/><path d="m135.67 197.13 59.06-15.29 24.76 76.21zm135.65-98.55h-103.64l-32.02-98.58-32 98.55-103.66-.02 83.85 60.94-32 98.58 83.84-60.92 51.81-37.63 83.84-60.92z"/></g></svg>